<?xml version="1.0" encoding="UTF-8"?>
<svg version="1.1" xmlns="http://www.w3.org/2000/svg" width="453" height="453">
<path d="M0 0 C9.55905045 7.67715134 9.55905045 7.67715134 11 12 C9.88625 12.21914062 8.7725 12.43828125 7.625 12.6640625 C-10.39370424 16.34970655 -31.3598219 21.71797684 -42.7578125 37.421875 C-49.95083662 48.8890149 -50.77457507 61.63661047 -48.16015625 74.73046875 C-42.59414837 98.7153555 -28.86465199 132.33640991 -7.625 146.5625 C0.32466764 149.71495441 7.57227354 148.01916684 15.1875 144.75 C16.03626709 144.3979248 16.88503418 144.04584961 17.75952148 143.68310547 C29.47551872 138.69254433 40.63809789 132.54246458 51.81787109 126.46923828 C53.61749521 125.4921173 55.4189347 124.51833036 57.22241211 123.54833984 C58.87034289 122.6611027 60.51338233 121.76470124 62.15063477 120.85791016 C62.87951904 120.46522949 63.60840332 120.07254883 64.359375 119.66796875 C64.99327148 119.32016357 65.62716797 118.9723584 66.28027344 118.61401367 C68 118 68 118 71 119 C66.98386357 123.88781329 62.72989826 128.29773065 58.0625 132.5625 C56.73148499 133.78875231 55.40076421 135.01532405 54.0703125 136.2421875 C53.05759277 137.17369629 53.05759277 137.17369629 52.02441406 138.12402344 C50.06020586 139.94420865 48.11677058 141.78382415 46.1796875 143.6328125 C38.66079092 150.79161617 30.95556914 157.47557019 22.66992188 163.73291016 C21.00215502 164.99836483 19.35156703 166.28372695 17.703125 167.57421875 C9.91897772 173.58660116 4.21265294 177.73820419 -5.92578125 177.40625 C-40.03270581 172.89910876 -75.07900049 138.82351788 -95 113 C-112.7113848 89.70583039 -126.74807645 63.06067186 -125 33 C-122.64999358 16.77458804 -117.10924911 4.53180101 -104.4921875 -6.15234375 C-74.7959608 -28.16851182 -28.45427004 -20.26678331 0 0 Z " fill="#ED6825" transform="translate(224,121)"/>
<path d="M0 0 C9.86017924 8.94411529 15.02780136 21.8523338 15.74609375 34.98828125 C16.33374879 60.04976263 9.39531022 83.4617033 -6.625 103.03515625 C-7.28757812 103.8859375 -7.95015625 104.73671875 -8.6328125 105.61328125 C-17.91390405 117.32595029 -28.46839366 127.95785021 -39 138.53515625 C-39.73661865 139.27644775 -40.4732373 140.01773926 -41.23217773 140.78149414 C-45.3149076 144.85226064 -49.49301251 148.74853533 -53.86083984 152.51171875 C-56.03488761 154.389114 -58.14000942 156.33629222 -60.25 158.28515625 C-66.45205975 163.87174442 -72.9965938 168.96997101 -79.625 174.03515625 C-80.23005371 174.50244141 -80.83510742 174.96972656 -81.45849609 175.45117188 C-88.43681472 180.82282412 -95.51465423 185.76113934 -103.1875 190.09765625 C-104.16952393 190.65283936 -104.16952393 190.65283936 -105.17138672 191.21923828 C-114.59046262 196.38140639 -124.54531257 198.4321395 -135.10546875 195.87109375 C-145.59051715 192.39233351 -153.59821006 185.33846632 -161.625 178.03515625 C-162.41003906 177.32230469 -163.19507813 176.60945312 -164.00390625 175.875 C-167.47981975 172.56761564 -167.47981975 172.56761564 -168.625 171.03515625 C-168.625 170.04515625 -168.625 169.05515625 -168.625 168.03515625 C-163.22659414 168.59530212 -158.81283719 169.98160854 -153.8125 172.03515625 C-145.37618225 175.31675484 -137.84256831 177.65561926 -129.03515625 174.23828125 C-120.11123247 169.78355106 -112.23594055 163.41426827 -104.625 157.03515625 C-104.07521484 156.57560547 -103.52542969 156.11605469 -102.95898438 155.64257812 C-96.53798884 150.26016984 -90.24988054 144.85019255 -84.4140625 138.828125 C-82.55582964 136.96583487 -80.62026175 135.24923246 -78.625 133.53515625 C-71.7064458 127.5643492 -65.53580728 120.99190885 -59.625 114.03515625 C-58.87476563 113.1740625 -58.12453125 112.31296875 -57.3515625 111.42578125 C-43.54838725 95.3148196 -27.92144126 75.52079177 -28.31640625 53.44921875 C-28.88219667 47.18971464 -31.15980718 43.18184097 -35.625 38.84765625 C-54.03586819 24.58407837 -83.52701472 26.34326758 -105.28930664 28.86083984 C-119.25028209 30.72431509 -133.42039391 33.53667317 -146.60620117 38.56445312 C-148.95431775 39.11193998 -150.36154856 38.78932265 -152.625 38.03515625 C-131.89403956 10.83551267 -91.5584936 -6.04010286 -58.6315918 -10.94726562 C-38.0863946 -13.68695855 -17.15762787 -12.84268872 0 0 Z " fill="#0C73C0" transform="translate(361.625,132.96484375)"/>
<path d="M0 0 C1.875 0.75 1.875 0.75 2.875 2.75 C3.00824509 6.68073029 2.95138642 10.23439169 2.375 14.125 C-0.24391823 33.1121572 7.76248492 50.75293617 18.875 65.75 C18.36710937 64.90179688 17.85921875 64.05359375 17.3359375 63.1796875 C3.30355221 39.42547426 3.30355221 39.42547426 5.0625 31.0390625 C7.5703461 23.9736884 10.62464966 16.23743101 16.875 11.75 C19.625 11.375 19.625 11.375 21.875 11.75 C22.37 12.245 22.37 12.245 22.875 12.75 C22.52862817 17.42601977 21.67004408 21.57810085 20.3125 26.0625 C16.42013179 40.12897918 20.76360467 54.0114425 25.9453125 67.22265625 C26.875 69.75 26.875 69.75 27.6640625 73.2265625 C32.05011278 85.98855397 52.12435729 96.36007186 63.375 102.75 C64.03338867 103.12398926 64.69177734 103.49797852 65.37011719 103.88330078 C69.11504859 105.94904092 72.75287753 107.52863038 76.875 108.75 C76.32070312 107.67621094 75.76640625 106.60242188 75.1953125 105.49609375 C74.46321742 104.06006109 73.73146477 102.62385382 73 101.1875 C72.63519531 100.48302734 72.27039063 99.77855469 71.89453125 99.05273438 C67.34186746 90.07157036 64.62120698 80.22004592 67.6328125 70.23828125 C69.32653882 66.63077755 71.15359137 63.49441029 74.875 61.75 C76.9375 61.625 76.9375 61.625 78.875 62.75 C80.58336395 65.95318241 81.66831575 69.05585289 82.703125 72.53125 C87.91549835 89.67024032 100.99134843 101.60097103 114.375 112.796875 C119.71078077 117.26500115 124.79067481 122.00057048 129.875 126.75 C130.85726562 127.61625 130.85726562 127.61625 131.859375 128.5 C142.43310112 138.20066616 149.9561651 152.72023332 151.05200195 167.06738281 C151.67117566 191.17322113 146.74243186 212.18445968 131.875 231.75 C131.215 231.75 130.555 231.75 129.875 231.75 C129.66746094 230.75742187 129.45992187 229.76484375 129.24609375 228.7421875 C123.93785515 204.78386229 109.63322386 188.07742619 90.79296875 173.09765625 C87.39978706 170.3676667 84.10630295 167.53581145 80.8125 164.6875 C76.88733728 161.30166456 72.94379273 157.96361133 68.875 154.75 C59.14911541 147.04901269 49.85467881 138.83991903 40.7578125 130.41015625 C37.88745095 127.76148929 34.97654764 125.16291036 32.0625 122.5625 C27.63397509 118.53197376 23.70515833 114.34138226 19.875 109.75 C19.03195313 108.79480469 18.18890625 107.83960938 17.3203125 106.85546875 C-1.59774506 85.31829425 -14.78006372 60.1198581 -13.125 30.75 C-11.81870052 20.87561021 -9.37475352 10.80663937 -5.125 1.75 C-2.125 -0.25 -2.125 -0.25 0 0 Z M19.875 66.75 C20.205 67.74 20.535 68.73 20.875 69.75 C20.875 68.76 20.875 67.77 20.875 66.75 C20.545 66.75 20.215 66.75 19.875 66.75 Z " fill="#2EA3BE" transform="translate(92.125,213.25)"/>
<path d="M0 0 C7.60684263 6.55399244 11.41829426 13.94056525 12.375 23.90625 C12.83538014 34.06947219 11.24968776 42.18967092 4.875 50.3125 C-0.31259161 55.82361883 -7.39741242 59.52483828 -15 60 C-15.73734375 60.05027344 -16.4746875 60.10054688 -17.234375 60.15234375 C-25.98462911 60.49202753 -34.1302544 58.64845749 -41 53 C-49.03294842 45.54966102 -52.13936714 37.45260364 -52.5625 26.5625 C-52.28722239 17.54257038 -49.88938003 9.71396186 -43.6875 3 C-31.68631186 -7.63036277 -13.25657466 -9.32870069 0 0 Z " fill="#3F88CA" transform="translate(358,49)"/>
<path d="M0 0 C6.87998164 5.63024715 11.5680976 12.55240366 12.7109375 21.45703125 C13.53880406 31.2879466 12.12621203 40.65467034 5.7109375 48.45703125 C-1.71716408 55.9824442 -8.41898119 58.88239671 -19.0078125 59.453125 C-28.29312177 59.46417894 -35.48468179 57.04917024 -42.234375 50.59765625 C-49.68401488 42.55578558 -51.63271093 34.40187831 -51.5 23.5859375 C-50.93993495 15.27830593 -48.16530103 8.40991637 -42.2890625 2.45703125 C-30.18886537 -7.62646636 -13.31041196 -8.97203536 0 0 Z " fill="#EC6825" transform="translate(169.2890625,32.54296875)"/>
<path d="M0 0 C3.14344435 1.74635797 5.46862726 3.46862726 8 6 C8.26991906 8.68839385 8.08737357 11.29141936 8 14 C6.35 14 4.7 14 3 14 C2.71125 12.865625 2.4225 11.73125 2.125 10.5625 C1.75375 9.386875 1.3825 8.21125 1 7 C-2.79359325 5.10320337 -7.04395608 5.78275572 -11 7 C-11.04125 8.2375 -11.0825 9.475 -11.125 10.75 C-11.14820313 11.44609375 -11.17140625 12.1421875 -11.1953125 12.859375 C-10.97196674 15.30724458 -10.14041026 16.84545329 -9 19 C-7.18411377 19.00616333 -7.18411377 19.00616333 -5.33154297 19.01245117 C-0.82476675 19.03428144 3.68114125 19.08861153 8.1875 19.15258789 C10.13500627 19.17573395 12.08263711 19.19015563 14.03027344 19.19555664 C16.83607302 19.20487109 19.63992254 19.24591506 22.4453125 19.29296875 C23.31116974 19.2890361 24.17702698 19.28510345 25.06912231 19.28105164 C29.33911862 19.3832898 32.15881981 19.68652437 35.54956055 22.4152832 C38 25 38 25 38.76171875 27.0625 C38.72498047 28.0215625 38.72498047 28.0215625 38.6875 29 C38.69136719 29.639375 38.69523437 30.27875 38.69921875 30.9375 C37.52559062 34.39937515 35.93038304 35.82261412 33 38 C29.64511062 38.69274132 26.35457339 38.69981822 22.9375 38.6875 C21.15485387 38.70413632 19.37225963 38.72858834 17.58984375 38.76171875 C16.80472412 38.76131592 16.01960449 38.76091309 15.21069336 38.76049805 C12.69299229 39.03326058 11.10297585 39.59064035 9 41 C8.50472998 44.31072389 8.5626311 47.49115678 8.56640625 50.8359375 C8 54 8 54 5.58984375 56.3515625 C1.76413387 58.78662972 -0.33262415 59.18336368 -4.875 59.25 C-5.92429688 59.27578125 -6.97359375 59.3015625 -8.0546875 59.328125 C-11.35527185 58.96042064 -12.66663604 58.3225111 -15 56 C-16.09506492 52.71480525 -16.09960608 50.26336585 -16.0625 46.8125 C-16.05347656 45.72582031 -16.04445312 44.63914063 -16.03515625 43.51953125 C-16.02355469 42.68808594 -16.01195312 41.85664063 -16 41 C-24.13002464 39.40548821 -24.13002464 39.40548821 -32.375 39 C-36.85566034 39 -40.30872657 38.39967457 -43.8125 35.5 C-46.30014292 32.35771421 -46.31571084 29.94638544 -46 26 C-44.22015595 22.8640843 -43.47691793 22.15897264 -40 21 C-37.77181559 20.93062938 -35.54165476 20.91542916 -33.3125 20.9375 C-31.54326172 20.95103516 -31.54326172 20.95103516 -29.73828125 20.96484375 C-28.83464844 20.97644531 -27.93101562 20.98804688 -27 21 C-27 22.65 -27 24.3 -27 26 C-31.62 26.33 -36.24 26.66 -41 27 C-39.66436384 31.94463635 -39.66436384 31.94463635 -37 33 C-33.27535975 33.20032926 -29.55698118 33.34548752 -25.828125 33.4296875 C-19.88361044 33.66433939 -15.3702182 34.6297818 -11 39 C-10.65223309 42.34560573 -10.5566652 45.67015043 -10.44140625 49.03125 C-10.29574219 50.0109375 -10.15007812 50.990625 -10 52 C-7.10269959 54.38312904 -7.10269959 54.38312904 -3.4375 53.6875 C-0.15713956 53.18820203 -0.15713956 53.18820203 2 52 C2.39391218 49.31727082 2.39391218 49.31727082 2.5 46.1875 C2.84487017 39.10903975 2.84487017 39.10903975 5 36 C13.21130229 32.11043576 22.07185081 32.29726329 31 32 C31.66 30.68 32.32 29.36 33 28 C29.93664962 24.93664962 26.3405119 25.70176699 22.23046875 25.69140625 C20.43684579 25.66624011 18.64322608 25.64084217 16.84960938 25.61523438 C14.0188078 25.58651645 11.18806269 25.56250374 8.35717773 25.54370117 C5.62713836 25.52201339 2.89777394 25.48256367 0.16796875 25.44140625 C-0.67490189 25.44129044 -1.51777252 25.44117462 -2.38618469 25.4410553 C-8.28441911 25.34196774 -11.72101151 24.27898849 -16 20 C-17.36259753 8.68326897 -17.36259753 8.68326897 -14.984375 4 C-10.87090642 -0.16302844 -5.58256691 -0.79147924 0 0 Z " fill="#F28546" transform="translate(242,175)"/>
<path d="M0 0 C-0.33358652 4.58681461 -0.85905414 7.98229159 -3 12.0625 C-5.5029267 17.51305578 -5.663711 22.63601442 -5.75 28.5625 C-5.77964844 29.57119141 -5.80929688 30.57988281 -5.83984375 31.61914062 C-5.90980668 34.0795037 -5.96286189 36.53896011 -6 39 C-6.99 39 -7.98 39 -9 39 C-17.22365351 15.63389963 -17.22365351 15.63389963 -14.296875 6.90234375 C-13.3125 5.3125 -13.3125 5.3125 -11 3 C-10.401875 2.38125 -9.80375 1.7625 -9.1875 1.125 C-6.0898942 -0.46805441 -3.42347174 -0.19750798 0 0 Z " fill="#2EA3BF" transform="translate(127,240)"/>
</svg>
